<?xml version="1.0" standalone="no"?>
<!DOCTYPE svg PUBLIC "-//W3C//DTD SVG 20010904//EN"
 "http://www.w3.org/TR/2001/REC-SVG-20010904/DTD/svg10.dtd">
<svg version="1.0" xmlns="http://www.w3.org/2000/svg"
 width="1280.000000pt" height="640.000000pt" viewBox="0 0 1280.000000 640.000000"
 preserveAspectRatio="xMidYMid meet">
<g transform="translate(0.000000,640.000000) scale(0.100000,-0.100000)"
fill="#000000" stroke="none">
<path d="M8450 5740 c0 -5 50 -134 110 -285 61 -151 110 -280 110 -285 0 -11
-994 -1285 -1009 -1295 -5 -2 -253 -27 -552 -55 -299 -28 -591 -55 -649 -60
-58 -5 -350 -32 -650 -60 -300 -28 -590 -55 -645 -61 -55 -6 -264 -13 -465
-16 -296 -4 -398 -2 -540 11 -263 25 -465 53 -559 77 -104 26 -251 87 -258
106 -5 12 27 201 43 256 5 15 -5 17 -119 17 l-124 0 -38 -55 c-20 -30 -41 -55
-45 -55 -5 0 -46 30 -92 67 -278 221 -836 722 -1376 1236 -74 70 -143 127
-152 127 -22 0 -389 -85 -395 -92 -3 -3 258 -474 580 -1048 411 -734 581
-1048 574 -1056 -5 -6 -30 -15 -54 -18 -25 -4 -47 -11 -50 -17 -6 -8 13 -86
31 -134 4 -10 -4 -19 -27 -29 -19 -8 -259 -71 -534 -141 -976 -247 -1462 -377
-1511 -403 -11 -6 -28 -20 -38 -31 -17 -19 -18 -24 -6 -47 29 -53 81 -71 259
-87 l164 -15 914 224 c504 123 942 229 974 236 51 10 65 10 102 -4 303 -117
575 -217 817 -298 430 -145 552 -178 689 -190 64 -6 238 -24 386 -40 346 -39
436 -43 680 -32 198 9 248 5 209 -16 -10 -5 -822 -271 -1802 -592 l-1784 -582
-61 48 c-34 26 -122 95 -195 152 l-133 105 -175 -13 c-263 -19 -250 -11 -148
-99 145 -125 348 -326 405 -401 40 -53 66 -77 104 -95 69 -33 201 -49 355 -42
l125 6 655 195 c1037 308 2250 670 2951 882 356 106 652 194 659 194 7 0 35
-19 62 -42 l50 -41 24 31 c25 31 58 46 131 57 65 10 69 -1 20 -54 -82 -88
-101 -157 -42 -155 17 0 44 3 61 8 30 7 33 5 55 -41 33 -69 104 -136 170 -161
69 -25 337 -48 454 -37 44 4 190 10 325 15 157 5 258 12 280 21 59 22 209 119
239 156 35 42 88 165 101 232 10 53 -4 138 -41 248 -25 77 -80 134 -152 161
-57 22 -70 39 -35 46 13 3 136 16 273 31 138 14 336 34 440 45 105 11 379 33
610 50 956 69 2037 170 2473 231 322 45 557 134 831 316 174 116 248 183 284
260 27 59 29 68 18 104 -23 77 -141 166 -386 295 -71 37 -147 82 -167 99 -50
42 -184 107 -288 140 -122 38 -464 122 -600 146 -163 30 -424 35 -795 15 -371
-21 -1036 -68 -1415 -101 -332 -29 -340 -29 -340 -12 0 7 92 272 205 587 113
315 205 578 205 583 0 6 -97 140 -216 299 l-216 288 -164 0 c-102 0 -164 -4
-164 -10z"/>
</g>
</svg>
